<?xml version="1.0" encoding="UTF-8"?>
<svg id="Camada_2" data-name="Camada 2" xmlns="http://www.w3.org/2000/svg" viewBox="0 0 726.74 783">
  <g id="Camada_6" data-name="Camada 6">
    <g id="Mascote">
      <polygon points="206.33 411.51 231.55 468.83 296.89 489.46 265.94 431 206.33 411.51"/>
      <path d="m622.43,254.57L581.16.09l-201.74,139.85-16.05-.09h-16.05L145.58,0l-41.27,254.47L0,459.66l283.13,323.25,80.24-.09v.09l80.24.09,283.13-323.25-104.31-205.18Zm-75.65-166.21c0,6.88,26.36,168.5,26.36,168.5l-96.29-45.85s65.34-116.92,69.92-122.65Zm-366.81-.09c4.59,5.73,69.92,122.65,69.92,122.65l-96.29,45.85s26.36-161.62,26.36-168.5Zm358.78,409.31l-21.78,118.07-89.41,104.31-50.44,18.34,1.15-19.49,58.46-55.02-38.97-16.05-34.39-.77v-.09l-34.39.77-38.97,16.05,58.46,55.02,1.15,19.49-50.44-18.34-89.41-104.31-21.78-118.07-44.7,48.14-79.09-96.29,19.49-49.29,139.85-85.97,119.21,111.19,20.39,51.18v1.33s.27-.67.27-.67l.23.57v-1.15s20.39-51.18,20.39-51.18l119.21-111.19,139.85,85.97,19.49,49.29-79.09,96.29-44.7-48.14Z"/>
      <polygon points="429.85 489.55 495.19 468.92 520.41 411.61 460.8 431.09 429.85 489.55"/>
    </g>
  </g>
</svg>