<?xml version="1.0" encoding="UTF-8" standalone="no" ?>
<!DOCTYPE svg PUBLIC "-//W3C//DTD SVG 1.1//EN" "http://www.w3.org/Graphics/SVG/1.1/DTD/svg11.dtd">
<svg xmlns="http://www.w3.org/2000/svg" xmlns:xlink="http://www.w3.org/1999/xlink" version="1.1" width="1080" height="1080" viewBox="0 0 1080 1080" xml:space="preserve">
<desc>Created with Fabric.js 5.2.4</desc>
<defs>
</defs>
<g transform="matrix(1 0 0 1 540 540)" id="046a1d2b-792f-45fb-8661-02d0d4c12c3e"  >
<rect style="stroke: none; stroke-width: 1; stroke-dasharray: none; stroke-linecap: butt; stroke-dashoffset: 0; stroke-linejoin: miter; stroke-miterlimit: 4; fill: rgb(255,255,255); fill-rule: nonzero; opacity: 1; visibility: hidden;" vector-effect="non-scaling-stroke"  x="-540" y="-540" rx="0" ry="0" width="1080" height="1080" />
</g>
<g transform="matrix(1 0 0 1 540 540)" id="3852cb58-b8c0-4de8-a795-5119fdaa4cee"  >
</g>
<g transform="matrix(1.34 0 0 1.34 540.48 539.48)"  >
<g style="" vector-effect="non-scaling-stroke"   >
		<g transform="matrix(1 0 0 1 -111.76 58.98)"  >
<polygon style="stroke: none; stroke-width: 1; stroke-dasharray: none; stroke-linecap: butt; stroke-dashoffset: 0; stroke-linejoin: miter; stroke-miterlimit: 4; fill: rgb(255,255,255); fill-rule: nonzero; opacity: 1;" vector-effect="non-scaling-stroke"  points="-45.28,-38.98 -20.06,18.34 45.28,38.97 14.33,-19.49 -45.28,-38.98 " />
</g>
		<g transform="matrix(1 0 0 1 0 0)"  >
<path style="stroke: none; stroke-width: 1; stroke-dasharray: none; stroke-linecap: butt; stroke-dashoffset: 0; stroke-linejoin: miter; stroke-miterlimit: 4; fill: rgb(255,255,255); fill-rule: nonzero; opacity: 1;" vector-effect="non-scaling-stroke"  transform=" translate(-363.37, -391.5)" d="M 622.43 254.57 L 581.16 0.09 L 379.41999999999996 139.94 L 363.36999999999995 139.85 L 347.31999999999994 139.85 L 145.58 0 L 104.31 254.47 L 0 459.66 L 283.13 782.9100000000001 L 363.37 782.82 L 363.37 782.9100000000001 L 443.61 783.0000000000001 L 726.74 459.7500000000001 L 622.4300000000001 254.5700000000001 Z M 546.78 88.35999999999999 C 546.78 95.23999999999998 573.14 256.86 573.14 256.86 L 476.84999999999997 211.01000000000002 C 476.84999999999997 211.01000000000002 542.1899999999999 94.09000000000002 546.77 88.36000000000001 Z M 179.96999999999997 88.26999999999998 C 184.55999999999997 93.99999999999999 249.89 210.92 249.89 210.92 L 153.59999999999997 256.77 C 153.59999999999997 256.77 179.95999999999998 95.14999999999998 179.95999999999998 88.26999999999998 Z M 538.75 497.58 L 516.97 615.65 L 427.56000000000006 719.96 L 377.12000000000006 738.3000000000001 L 378.27000000000004 718.8100000000001 L 436.73 663.7900000000001 L 397.76 647.7400000000001 L 363.37 646.9700000000001 L 363.37 646.8800000000001 L 328.98 647.6500000000001 L 290.01 663.7 L 348.46999999999997 718.72 L 349.61999999999995 738.21 L 299.17999999999995 719.87 L 209.76999999999995 615.56 L 187.98999999999995 497.48999999999995 L 143.28999999999996 545.63 L 64.19999999999996 449.34 L 83.68999999999996 400.04999999999995 L 223.53999999999996 314.0799999999999 L 342.74999999999994 425.2699999999999 L 363.13999999999993 476.44999999999993 L 363.13999999999993 477.7799999999999 C 363.13999999999993 477.7799999999999 363.4099999999999 477.1099999999999 363.4099999999999 477.1099999999999 L 363.63999999999993 477.6799999999999 L 363.63999999999993 476.5299999999999 C 363.63999999999993 476.5299999999999 384.0299999999999 425.3499999999999 384.0299999999999 425.3499999999999 L 503.2399999999999 314.1599999999999 L 643.0899999999999 400.1299999999999 L 662.5799999999999 449.4199999999999 L 583.4899999999999 545.7099999999999 L 538.7899999999998 497.56999999999994 Z" stroke-linecap="round" />
</g>
		<g transform="matrix(1 0 0 1 111.76 59.08)"  >
<polygon style="stroke: none; stroke-width: 1; stroke-dasharray: none; stroke-linecap: butt; stroke-dashoffset: 0; stroke-linejoin: miter; stroke-miterlimit: 4; fill: rgb(255,255,255); fill-rule: nonzero; opacity: 1;" vector-effect="non-scaling-stroke"  points="-45.28,38.97 20.06,18.34 45.28,-38.97 -14.33,-19.49 -45.28,38.97 " />
</g>
</g>
</g>
</svg>